# This file uses meters as units for non-parametric coordinates.

mtllib Cuadro.mtl
v -212.058472 40.251174 467.041871
v -211.775709 57.760057 466.692090
v -211.770296 57.764343 466.910970
v -212.053058 40.255460 467.260751
v -188.544610 56.978291 465.694697
v -188.539198 56.982575 465.913521
v -210.088020 57.341089 466.439506
v -210.093433 57.336805 466.220681
v -188.418578 39.862246 466.683857
v -188.135816 57.371129 466.334077
v -188.141230 57.366845 466.115196
v -188.423992 39.857961 466.464977
v -212.069298 40.242606 466.604222
v -211.786535 57.751489 466.254441
v -210.363715 40.600690 466.555025
v -188.814893 40.242176 466.029040
v -186.817820 58.649597 465.619264
v -187.142996 38.514381 466.021513
v -212.090504 38.929440 466.630455
v -211.765328 59.064655 466.228208
v -212.889254 38.153517 467.322586
v -186.337677 37.711771 466.674489
v -185.986593 59.451227 466.240192
v -212.538170 59.892972 466.888289
v -210.358303 40.604974 466.773849
v -188.809480 40.246460 466.247865
v -212.101329 38.920872 466.192807
v -187.153822 38.505813 465.583864
v -212.916318 38.132095 466.228408
v -212.565233 59.871550 465.794111
v -211.776152 59.056087 465.790558
v -186.013657 59.429806 465.146015
v -186.828645 58.641027 465.181617
v -186.364741 37.690349 465.580311
vt 0.000000 0.000000
vt 0.000000 0.000000
vt 0.000000 0.000000
vt 0.000000 0.000000
vt 0.000000 0.000000
vt 0.000000 0.000000
vt 0.000000 0.000000
vt 0.000000 0.000000
vt 0.000000 0.000000
vt 0.000000 0.000000
vt 0.000000 0.000000
vt 0.000000 0.000000
vt 0.000000 0.000000
vt 0.000000 0.000000
vt 0.000000 0.000000
vt 0.000000 0.000000
vt 0.000000 0.000000
vt 0.000000 0.000000
vt 0.000000 0.000000
vt 0.000000 0.000000
vt 0.000000 0.000000
vt 0.000000 0.000000
vt 0.000000 0.000000
vt 0.000000 0.000000
vt 0.000000 0.000000
vt 0.000000 0.000000
vt 0.000000 0.000000
vt 0.000000 0.000000
vt 0.000000 0.000000
vt 0.000000 0.000000
vt 0.000000 0.000000
vt 0.000000 0.000000
vt 0.000000 0.000000
vt 0.000000 0.000000
vt 0.000000 0.000000
vt 0.000000 0.000000
vt 0.000000 0.000000
vt 0.000000 0.000000
vt 0.000000 0.000000
vt 0.000000 0.000000
vt 0.000000 0.000000
vt 0.000000 0.000000
vt 0.000000 0.000000
vt 0.000000 0.000000
vt 0.000000 0.000000
vt 0.000000 0.000000
vt 0.000000 0.000000
vt 0.000000 0.000000
vt 0.000000 0.000000
vt 0.000000 0.000000
vt 0.000000 0.000000
vt 0.000000 0.000000
vt 0.000000 0.000000
vt 0.000000 0.000000
vt 0.000000 0.000000
vt 0.000000 0.000000
vt 0.000000 0.000000
vt 0.000000 0.000000
vt 0.000000 0.000000
vt 0.000000 0.000000
vt 0.000000 0.000000
vt 0.000000 0.000000
vt 0.000000 0.000000
vt 0.000000 0.000000
vt 0.000000 0.000000
vt 0.000000 0.000000
vt 0.000000 0.000000
vt 0.000000 0.000000
vt 0.000000 0.000000
vt 0.000000 0.000000
vt 0.000000 0.000000
vt 0.000000 0.000000
vt 0.000000 0.000000
vt 0.000000 0.000000
vt 0.000000 0.000000
vt 0.000000 0.000000
vt 0.000000 0.000000
vt 0.000000 0.000000
vt 0.000000 0.000000
vt 0.000000 0.000000
vt 0.000000 0.000000
vt 0.000000 0.000000
vt 0.000000 0.000000
vt 0.000000 0.000000
vt 0.000000 0.000000
vt 0.000000 0.000000
vt 0.000000 0.000000
vt 0.000000 0.000000
vt 0.000000 0.000000
vt 0.000000 0.000000
vt 0.000000 0.000000
vt 0.000000 0.000000
vt 0.000000 0.000000
vt 0.000000 0.000000
vt 0.000000 0.000000
vt 0.000000 0.000000
vt 0.000000 0.000000
vt 0.000000 0.000000
vt 0.000000 0.000000
vt 0.000000 0.000000
vt 0.000000 0.000000
vt 0.000000 0.000000
vt 0.000000 0.000000
vt 0.000000 0.000000
vt 0.000000 0.000000
vt 0.000000 0.000000
vt 0.000000 0.000000
vt 0.000000 0.000000
vt 0.000000 0.000000
vt 0.000000 0.000000
vt 0.000000 0.000000
vt 0.000000 0.000000
vt 0.000000 0.000000
vt 0.000000 0.000000
vt 0.000000 0.000000
vt 0.000000 0.000000
vt 0.000000 0.000000
vt 0.000000 0.000000
vt 0.000000 0.000000
vt 0.000000 0.000000
vt 0.000000 0.000000
vt 0.000000 0.000000
vt 0.000000 0.000000
vt 0.000000 0.000000
vt 0.000000 0.000000
vt 0.000000 0.000000
vt 0.000000 0.000000
vt 0.000000 0.000000
vt 0.000000 0.000000
vt 0.000000 0.000000
vt 0.000000 0.000000
vt -0.000000 0.989100
vt 0.000000 0.000000
vt 0.944600 0.989100
vt 0.944600 0.000000
vn 0.999564 -0.016630 -0.024398
vn 0.999564 -0.016630 -0.024398
vn 0.999564 -0.016630 -0.024398
vn 0.999564 -0.016630 -0.024398
vn 0.999564 -0.016630 -0.024398
vn 0.999564 -0.016630 -0.024398
vn -0.016144 -0.999670 0.019971
vn -0.016144 -0.999670 0.019971
vn -0.016144 -0.999670 0.019971
vn -0.016144 -0.999670 0.019971
vn -0.016144 -0.999670 0.019971
vn -0.016144 -0.999670 0.019971
vn 0.024722 0.019568 0.999503
vn 0.024722 0.019568 0.999503
vn 0.024722 0.019568 0.999503
vn 0.024722 0.019568 0.999503
vn 0.024722 0.019568 0.999503
vn 0.024722 0.019568 0.999503
vn -0.999564 0.016630 0.024398
vn -0.999564 0.016630 0.024398
vn -0.999564 0.016630 0.024398
vn -0.999564 0.016630 0.024398
vn -0.999564 0.016630 0.024398
vn -0.999564 0.016630 0.024398
vn 0.999564 -0.016630 -0.024398
vn 0.999564 -0.016630 -0.024398
vn 0.999564 -0.016630 -0.024398
vn 0.999564 -0.016630 -0.024398
vn 0.999564 -0.016630 -0.024398
vn 0.999564 -0.016630 -0.024398
vn -0.024722 -0.019568 -0.999503
vn -0.024722 -0.019568 -0.999503
vn -0.024722 -0.019568 -0.999503
vn -0.024722 -0.019568 -0.999503
vn -0.024722 -0.019568 -0.999503
vn -0.024722 -0.019568 -0.999503
vn -0.024722 -0.019568 -0.999503
vn -0.024722 -0.019568 -0.999503
vn -0.024722 -0.019568 -0.999503
vn -0.024722 -0.019568 -0.999503
vn -0.024722 -0.019568 -0.999503
vn -0.024722 -0.019568 -0.999503
vn -0.024722 -0.019568 -0.999503
vn -0.024722 -0.019568 -0.999503
vn -0.024722 -0.019568 -0.999503
vn -0.024722 -0.019568 -0.999503
vn -0.024722 -0.019568 -0.999503
vn -0.024722 -0.019568 -0.999503
vn -0.024722 -0.019568 -0.999503
vn -0.024722 -0.019568 -0.999503
vn -0.024722 -0.019568 -0.999503
vn -0.024722 -0.019568 -0.999503
vn -0.024722 -0.019568 -0.999503
vn -0.024722 -0.019568 -0.999503
vn -0.024722 -0.019568 -0.999503
vn -0.024722 -0.019568 -0.999503
vn -0.024722 -0.019568 -0.999503
vn -0.024722 -0.019568 -0.999503
vn -0.024722 -0.019568 -0.999503
vn -0.024722 -0.019568 -0.999503
vn -0.024722 -0.019568 -0.999503
vn -0.024722 -0.019568 -0.999503
vn -0.024722 -0.019568 -0.999503
vn -0.024722 -0.019568 -0.999503
vn -0.024722 -0.019568 -0.999503
vn -0.024722 -0.019568 -0.999503
vn 0.024722 0.019568 0.999503
vn 0.024722 0.019568 0.999503
vn 0.024722 0.019568 0.999503
vn 0.024722 0.019568 0.999503
vn 0.024722 0.019568 0.999503
vn 0.024722 0.019568 0.999503
vn 0.024722 0.019568 0.999503
vn 0.024722 0.019568 0.999503
vn 0.024722 0.019568 0.999503
vn 0.024722 0.019568 0.999503
vn 0.024722 0.019568 0.999503
vn 0.024722 0.019568 0.999503
vn 0.024722 0.019568 0.999503
vn 0.024722 0.019568 0.999503
vn 0.024722 0.019568 0.999503
vn 0.024722 0.019568 0.999503
vn 0.024722 0.019568 0.999503
vn 0.024722 0.019568 0.999503
vn 0.024722 0.019568 0.999503
vn 0.024722 0.019568 0.999503
vn 0.024722 0.019568 0.999503
vn 0.024722 0.019568 0.999503
vn 0.024722 0.019568 0.999503
vn 0.024722 0.019568 0.999503
vn 0.999564 -0.016630 -0.024398
vn 0.999564 -0.016630 -0.024398
vn 0.999564 -0.016630 -0.024398
vn 0.999564 -0.016630 -0.024398
vn 0.999564 -0.016630 -0.024398
vn 0.999564 -0.016630 -0.024398
vn -0.016144 -0.999670 0.019971
vn -0.016144 -0.999670 0.019971
vn -0.016144 -0.999670 0.019971
vn -0.016144 -0.999670 0.019971
vn -0.016144 -0.999670 0.019971
vn -0.016144 -0.999670 0.019971
vn 0.016144 0.999670 -0.019971
vn 0.016144 0.999670 -0.019971
vn 0.016144 0.999670 -0.019971
vn 0.016144 0.999670 -0.019971
vn 0.016144 0.999670 -0.019971
vn 0.016144 0.999670 -0.019971
vn -0.999564 0.016630 0.024398
vn -0.999564 0.016630 0.024398
vn -0.999564 0.016630 0.024398
vn -0.999564 0.016630 0.024398
vn -0.999564 0.016630 0.024398
vn -0.999564 0.016630 0.024398
vn 0.016144 0.999670 -0.019971
vn 0.016144 0.999670 -0.019971
vn 0.016144 0.999670 -0.019971
vn 0.016144 0.999670 -0.019971
vn 0.016144 0.999670 -0.019971
vn 0.016144 0.999670 -0.019971
vn -0.024722 -0.019568 -0.999503
vn -0.024722 -0.019568 -0.999503
vn -0.024722 -0.019568 -0.999503
vn -0.024722 -0.019568 -0.999503
vn -0.024722 -0.019568 -0.999503
vn -0.024722 -0.019568 -0.999503
vn -0.024722 -0.019568 -0.999503
vn -0.024722 -0.019568 -0.999503
vn -0.024722 -0.019568 -0.999503
vn -0.024722 -0.019568 -0.999503
vn -0.024722 -0.019568 -0.999503
vn -0.024722 -0.019568 -0.999503
vn -0.024722 -0.019568 -0.999503
vn -0.024722 -0.019568 -0.999503
vn -0.024722 -0.019568 -0.999503
vn -0.024722 -0.019568 -0.999503
vn -0.024722 -0.019568 -0.999503
vn -0.024722 -0.019568 -0.999503
vn -0.024722 -0.019568 -0.999503
vn -0.024722 -0.019568 -0.999503
vn -0.024722 -0.019568 -0.999503
vn -0.024722 -0.019568 -0.999503
vn -0.024722 -0.019568 -0.999503
vn -0.024722 -0.019568 -0.999503
vn 0.016144 0.999670 -0.019971
vn 0.016144 0.999670 -0.019971
vn 0.016144 0.999670 -0.019971
vn 0.016144 0.999670 -0.019971
vn 0.016144 0.999670 -0.019971
vn 0.016144 0.999670 -0.019971
vn -0.016144 -0.999670 0.019971
vn -0.016144 -0.999670 0.019971
vn -0.016144 -0.999670 0.019971
vn -0.016144 -0.999670 0.019971
vn -0.016144 -0.999670 0.019971
vn -0.016144 -0.999670 0.019971
vn 0.999564 -0.016630 -0.024398
vn 0.999564 -0.016630 -0.024398
vn 0.999564 -0.016630 -0.024398
vn 0.999564 -0.016630 -0.024398
vn 0.999564 -0.016630 -0.024398
vn 0.999564 -0.016630 -0.024398
vn 0.999564 -0.016630 -0.024398
vn 0.999564 -0.016630 -0.024398
vn 0.999564 -0.016630 -0.024398
vn 0.999564 -0.016630 -0.024398
vn 0.999564 -0.016630 -0.024398
vn 0.999564 -0.016630 -0.024398
vn 0.016144 0.999670 -0.019971
vn 0.016144 0.999670 -0.019971
vn 0.016144 0.999670 -0.019971
vn 0.016144 0.999670 -0.019971
vn 0.016144 0.999670 -0.019971
vn 0.016144 0.999670 -0.019971
vn -0.999564 0.016630 0.024398
vn -0.999564 0.016630 0.024398
vn -0.999564 0.016630 0.024398
vn -0.999564 0.016630 0.024398
vn -0.999564 0.016630 0.024398
vn -0.999564 0.016630 0.024398
vn -0.999564 0.016630 0.024398
vn -0.999564 0.016630 0.024398
vn -0.999564 0.016630 0.024398
vn -0.999564 0.016630 0.024398
vn -0.999564 0.016630 0.024398
vn -0.999564 0.016630 0.024398
vn 0.999564 -0.016630 -0.024398
vn 0.999564 -0.016630 -0.024398
vn 0.999564 -0.016630 -0.024398
vn 0.999564 -0.016630 -0.024398
vn 0.999564 -0.016630 -0.024398
vn 0.999564 -0.016630 -0.024398
vn -0.016144 -0.999670 0.019971
vn -0.016144 -0.999670 0.019971
vn -0.016144 -0.999670 0.019971
vn -0.016144 -0.999670 0.019971
vn -0.016144 -0.999670 0.019971
vn -0.016144 -0.999670 0.019971
vn -0.024722 -0.019568 -0.999503
vn -0.024722 -0.019568 -0.999503
vn -0.024722 -0.019568 -0.999503
vn -0.024722 -0.019568 -0.999503
vn -0.024722 -0.019568 -0.999503
vn -0.024722 -0.019568 -0.999503
s off
usemtl Cuadro:lambert2SG
f 1/1/1 2/2/2 4/3/3
f 4/3/4 2/2/5 3/4/6
f 5/5/7 6/6/8 8/7/9
f 8/7/10 6/6/11 7/8/12
f 4/9/13 9/10/14 3/11/15
f 3/11/16 9/10/17 10/12/18
f 11/13/19 12/14/20 10/15/21
f 10/15/22 12/14/23 9/16/24
f 13/17/25 14/18/26 1/1/27
f 1/1/28 14/18/29 2/19/30
f 11/20/31 12/21/32 2/22/33
f 2/22/34 12/21/35 1/1/36
f 16/23/37 13/24/38 15/25/39
f 15/25/40 13/24/41 14/26/42
f 15/27/43 14/28/44 8/29/45
f 8/29/46 14/28/47 17/30/48
f 8/31/49 17/32/50 5/33/51
f 5/33/52 17/32/53 16/34/54
f 17/35/55 18/36/56 16/37/57
f 16/37/58 18/36/59 19/38/60
f 16/39/61 19/40/62 13/41/63
f 17/42/64 14/43/65 20/44/66
f 21/45/67 22/46/68 9/47/69
f 9/47/70 22/46/71 23/48/72
f 9/49/73 23/50/74 10/51/75
f 10/51/76 23/50/77 3/52/78
f 23/53/79 24/54/80 3/55/81
f 3/55/82 24/54/83 4/56/84
f 24/57/85 21/58/86 4/59/87
f 4/59/88 21/58/89 9/60/90
f 15/61/91 8/62/92 25/63/93
f 25/63/94 8/62/95 7/64/96
f 11/65/97 10/66/98 2/67/99
f 2/67/100 10/66/101 3/68/102
f 26/69/103 16/70/104 25/71/105
f 25/71/106 16/70/107 15/72/108
f 5/73/109 16/74/110 6/75/111
f 6/75/112 16/74/113 26/76/114
f 9/77/115 12/78/116 4/79/117
f 4/79/118 12/78/119 1/1/120
f 28/80/121 29/81/122 27/82/123
f 27/82/124 29/81/125 30/83/126
f 27/84/127 30/85/128 31/86/129
f 31/86/130 30/85/131 32/87/132
f 31/88/133 32/89/134 33/90/135
f 33/90/136 32/89/137 28/91/138
f 32/92/139 34/93/140 28/94/141
f 28/94/142 34/93/143 29/95/144
f 18/96/145 28/97/146 19/98/147
f 19/98/148 28/97/149 27/99/150
f 34/100/151 22/101/152 29/102/153
f 29/102/154 22/101/155 21/103/156
f 27/104/157 31/105/158 19/106/159
f 19/106/160 31/105/161 20/107/162
f 19/108/163 20/109/164 13/110/165
f 20/109/166 14/111/167 13/110/168
f 23/112/169 32/113/170 24/114/171
f 24/114/172 32/113/173 30/115/174
f 33/116/175 28/117/176 17/118/177
f 17/118/178 28/117/179 18/119/180
f 30/120/181 29/121/182 24/122/183
f 24/122/184 29/121/185 21/123/186
f 34/124/187 32/125/188 22/126/189
f 22/126/190 32/125/191 23/127/192
f 33/128/193 17/129/194 31/130/195
f 31/130/196 17/129/197 20/131/198
f 6/132/199 26/133/200 7/134/201
f 7/134/202 26/133/203 25/135/204
