# This file uses meters as units for non-parametric coordinates.

mtllib Cuadro.mtl
v -141.695043 121.788275 1505.371238
v -141.939341 153.276231 1504.702652
v -141.929257 153.284667 1505.096232
v -141.684959 121.796711 1505.764819
v -100.144490 152.865937 1502.852691
v -100.134408 152.874370 1503.246172
v -138.887926 152.594914 1504.245147
v -138.898009 152.586481 1503.851667
v -99.180582 122.103216 1504.669154
v -99.424881 153.591171 1504.000568
v -99.434967 153.582739 1503.606987
v -99.190668 122.094780 1504.275573
v -141.715208 121.771410 1504.584277
v -141.959507 153.259366 1503.915691
v -138.664491 122.488270 1504.490744
v -99.910973 122.767727 1503.491768
v -97.112097 155.944495 1502.709012
v -96.831153 119.733346 1503.477886
v -141.696885 119.409812 1504.634420
v -141.977830 155.620962 1503.865547
v -143.097828 117.982181 1505.882773
v -95.347329 118.326517 1504.651876
v -95.650657 157.422730 1503.821743
v -143.401155 157.078393 1505.052640
v -138.654409 122.496703 1504.884225
v -99.900891 122.776161 1503.885249
v -141.717049 119.392947 1503.847460
v -96.851319 119.716480 1502.690925
v -143.148241 117.940014 1503.915270
v -143.451568 157.036226 1503.085138
v -141.997992 155.604096 1503.078585
v -95.701071 157.380563 1501.854241
v -97.132261 155.927626 1501.922053
v -95.397742 118.284350 1502.684373
vt 0.000000 0.000000
vt 0.000000 0.000000
vt 0.000000 0.000000
vt 0.000000 0.000000
vt 0.000000 0.000000
vt 0.000000 0.000000
vt 0.000000 0.000000
vt 0.000000 0.000000
vt 0.000000 0.000000
vt 0.000000 0.000000
vt 0.000000 0.000000
vt 0.000000 0.000000
vt 0.000000 0.000000
vt 0.000000 0.000000
vt 0.000000 0.000000
vt 0.000000 0.000000
vt 0.000000 0.000000
vt 0.000000 0.000000
vt 0.000000 0.000000
vt 0.000000 0.000000
vt 0.000000 0.000000
vt 0.000000 0.000000
vt 0.000000 0.000000
vt 0.000000 0.000000
vt 0.000000 0.000000
vt 0.000000 0.000000
vt 0.000000 0.000000
vt 0.000000 0.000000
vt 0.000000 0.000000
vt 0.000000 0.000000
vt 0.000000 0.000000
vt 0.000000 0.000000
vt 0.000000 0.000000
vt 0.000000 0.000000
vt 0.000000 0.000000
vt 0.000000 0.000000
vt 0.000000 0.000000
vt 0.000000 0.000000
vt 0.000000 0.000000
vt 0.000000 0.000000
vt 0.000000 0.000000
vt 0.000000 0.000000
vt 0.000000 0.000000
vt 0.000000 0.000000
vt 0.000000 0.000000
vt 0.000000 0.000000
vt 0.000000 0.000000
vt 0.000000 0.000000
vt 0.000000 0.000000
vt 0.000000 0.000000
vt 0.000000 0.000000
vt 0.000000 0.000000
vt 0.000000 0.000000
vt 0.000000 0.000000
vt 0.000000 0.000000
vt 0.000000 0.000000
vt 0.000000 0.000000
vt 0.000000 0.000000
vt 0.000000 0.000000
vt 0.000000 0.000000
vt 0.000000 0.000000
vt 0.000000 0.000000
vt 0.000000 0.000000
vt 0.000000 0.000000
vt 0.000000 0.000000
vt 0.000000 0.000000
vt 0.000000 0.000000
vt 0.000000 0.000000
vt 0.000000 0.000000
vt 0.000000 0.000000
vt 0.000000 0.000000
vt 0.000000 0.000000
vt 0.000000 0.000000
vt 0.000000 0.000000
vt 0.000000 0.000000
vt 0.000000 0.000000
vt 0.000000 0.000000
vt 0.000000 0.000000
vt 0.000000 0.000000
vt 0.000000 0.000000
vt 0.000000 0.000000
vt 0.000000 0.000000
vt 0.000000 0.000000
vt 0.000000 0.000000
vt 0.000000 0.000000
vt 0.000000 0.000000
vt 0.000000 0.000000
vt 0.000000 0.000000
vt 0.000000 0.000000
vt 0.000000 0.000000
vt 0.000000 0.000000
vt 0.000000 0.000000
vt 0.000000 0.000000
vt 0.000000 0.000000
vt 0.000000 0.000000
vt 0.000000 0.000000
vt 0.000000 0.000000
vt 0.000000 0.000000
vt 0.000000 0.000000
vt 0.000000 0.000000
vt 0.000000 0.000000
vt 0.000000 0.000000
vt 0.000000 0.000000
vt 0.000000 0.000000
vt 0.000000 0.000000
vt 0.000000 0.000000
vt 0.000000 0.000000
vt 0.000000 0.000000
vt 0.000000 0.000000
vt 0.000000 0.000000
vt 0.000000 0.000000
vt 0.000000 0.000000
vt 0.000000 0.000000
vt 0.000000 0.000000
vt 0.000000 0.000000
vt 0.000000 0.000000
vt 0.000000 0.000000
vt 0.000000 0.000000
vt 0.000000 0.000000
vt 0.000000 0.000000
vt 0.000000 0.000000
vt 0.000000 0.000000
vt 0.000000 0.000000
vt 0.000000 0.000000
vt 0.000000 0.000000
vt 0.000000 0.000000
vt 0.000000 0.000000
vt 0.000000 0.000000
vt 0.000000 0.000000
vt 0.000000 0.000000
vt 0.000000 0.000000
vt -0.000000 0.989100
vt 0.000000 0.000000
vt 0.944600 0.989100
vt 0.944600 0.000000
vn 0.999642 0.007208 -0.025768
vn 0.999642 0.007208 -0.025768
vn 0.999642 0.007208 -0.025768
vn 0.999642 0.007208 -0.025768
vn 0.999642 0.007208 -0.025768
vn 0.999642 0.007208 -0.025768
vn 0.007757 -0.999745 0.021228
vn 0.007757 -0.999745 0.021228
vn 0.007757 -0.999745 0.021228
vn 0.007757 -0.999745 0.021228
vn 0.007757 -0.999745 0.021228
vn 0.007757 -0.999745 0.021228
vn 0.025609 0.021420 0.999443
vn 0.025609 0.021420 0.999443
vn 0.025609 0.021420 0.999443
vn 0.025609 0.021420 0.999443
vn 0.025609 0.021420 0.999443
vn 0.025609 0.021420 0.999443
vn -0.999642 -0.007208 0.025768
vn -0.999642 -0.007208 0.025768
vn -0.999642 -0.007208 0.025768
vn -0.999642 -0.007208 0.025768
vn -0.999642 -0.007208 0.025768
vn -0.999642 -0.007208 0.025768
vn 0.999642 0.007208 -0.025768
vn 0.999642 0.007208 -0.025768
vn 0.999642 0.007208 -0.025768
vn 0.999642 0.007208 -0.025768
vn 0.999642 0.007208 -0.025768
vn 0.999642 0.007208 -0.025768
vn -0.025609 -0.021420 -0.999443
vn -0.025609 -0.021420 -0.999443
vn -0.025609 -0.021420 -0.999443
vn -0.025609 -0.021420 -0.999443
vn -0.025609 -0.021420 -0.999443
vn -0.025609 -0.021420 -0.999443
vn -0.025609 -0.021420 -0.999443
vn -0.025609 -0.021420 -0.999443
vn -0.025609 -0.021420 -0.999443
vn -0.025609 -0.021420 -0.999443
vn -0.025609 -0.021420 -0.999443
vn -0.025609 -0.021420 -0.999443
vn -0.025609 -0.021420 -0.999443
vn -0.025609 -0.021420 -0.999443
vn -0.025609 -0.021420 -0.999443
vn -0.025609 -0.021420 -0.999443
vn -0.025609 -0.021420 -0.999443
vn -0.025609 -0.021420 -0.999443
vn -0.025609 -0.021420 -0.999443
vn -0.025609 -0.021420 -0.999443
vn -0.025609 -0.021420 -0.999443
vn -0.025609 -0.021420 -0.999443
vn -0.025609 -0.021420 -0.999443
vn -0.025609 -0.021420 -0.999443
vn -0.025609 -0.021420 -0.999443
vn -0.025609 -0.021420 -0.999443
vn -0.025609 -0.021420 -0.999443
vn -0.025609 -0.021420 -0.999443
vn -0.025609 -0.021420 -0.999443
vn -0.025609 -0.021420 -0.999443
vn -0.025609 -0.021420 -0.999443
vn -0.025609 -0.021420 -0.999443
vn -0.025609 -0.021420 -0.999443
vn -0.025609 -0.021420 -0.999443
vn -0.025609 -0.021420 -0.999443
vn -0.025609 -0.021420 -0.999443
vn 0.025609 0.021420 0.999443
vn 0.025609 0.021420 0.999443
vn 0.025609 0.021420 0.999443
vn 0.025609 0.021420 0.999443
vn 0.025609 0.021420 0.999443
vn 0.025609 0.021420 0.999443
vn 0.025609 0.021420 0.999443
vn 0.025609 0.021420 0.999443
vn 0.025609 0.021420 0.999443
vn 0.025609 0.021420 0.999443
vn 0.025609 0.021420 0.999443
vn 0.025609 0.021420 0.999443
vn 0.025609 0.021420 0.999443
vn 0.025609 0.021420 0.999443
vn 0.025609 0.021420 0.999443
vn 0.025609 0.021420 0.999443
vn 0.025609 0.021420 0.999443
vn 0.025609 0.021420 0.999443
vn 0.025609 0.021420 0.999443
vn 0.025609 0.021420 0.999443
vn 0.025609 0.021420 0.999443
vn 0.025609 0.021420 0.999443
vn 0.025609 0.021420 0.999443
vn 0.025609 0.021420 0.999443
vn 0.999642 0.007208 -0.025768
vn 0.999642 0.007208 -0.025768
vn 0.999642 0.007208 -0.025768
vn 0.999642 0.007208 -0.025768
vn 0.999642 0.007208 -0.025768
vn 0.999642 0.007208 -0.025768
vn 0.007757 -0.999745 0.021228
vn 0.007757 -0.999745 0.021228
vn 0.007757 -0.999745 0.021228
vn 0.007757 -0.999745 0.021228
vn 0.007757 -0.999745 0.021228
vn 0.007757 -0.999745 0.021228
vn -0.007757 0.999745 -0.021228
vn -0.007757 0.999745 -0.021228
vn -0.007757 0.999745 -0.021228
vn -0.007757 0.999745 -0.021228
vn -0.007757 0.999745 -0.021228
vn -0.007757 0.999745 -0.021228
vn -0.999642 -0.007208 0.025768
vn -0.999642 -0.007208 0.025768
vn -0.999642 -0.007208 0.025768
vn -0.999642 -0.007208 0.025768
vn -0.999642 -0.007208 0.025768
vn -0.999642 -0.007208 0.025768
vn -0.007757 0.999745 -0.021228
vn -0.007757 0.999745 -0.021228
vn -0.007757 0.999745 -0.021228
vn -0.007757 0.999745 -0.021228
vn -0.007757 0.999745 -0.021228
vn -0.007757 0.999745 -0.021228
vn -0.025609 -0.021420 -0.999443
vn -0.025609 -0.021420 -0.999443
vn -0.025609 -0.021420 -0.999443
vn -0.025609 -0.021420 -0.999443
vn -0.025609 -0.021420 -0.999443
vn -0.025609 -0.021420 -0.999443
vn -0.025609 -0.021420 -0.999443
vn -0.025609 -0.021420 -0.999443
vn -0.025609 -0.021420 -0.999443
vn -0.025609 -0.021420 -0.999443
vn -0.025609 -0.021420 -0.999443
vn -0.025609 -0.021420 -0.999443
vn -0.025609 -0.021420 -0.999443
vn -0.025609 -0.021420 -0.999443
vn -0.025609 -0.021420 -0.999443
vn -0.025609 -0.021420 -0.999443
vn -0.025609 -0.021420 -0.999443
vn -0.025609 -0.021420 -0.999443
vn -0.025609 -0.021420 -0.999443
vn -0.025609 -0.021420 -0.999443
vn -0.025609 -0.021420 -0.999443
vn -0.025609 -0.021420 -0.999443
vn -0.025609 -0.021420 -0.999443
vn -0.025609 -0.021420 -0.999443
vn -0.007757 0.999745 -0.021228
vn -0.007757 0.999745 -0.021228
vn -0.007757 0.999745 -0.021228
vn -0.007757 0.999745 -0.021228
vn -0.007757 0.999745 -0.021228
vn -0.007757 0.999745 -0.021228
vn 0.007757 -0.999745 0.021228
vn 0.007757 -0.999745 0.021228
vn 0.007757 -0.999745 0.021228
vn 0.007757 -0.999745 0.021228
vn 0.007757 -0.999745 0.021228
vn 0.007757 -0.999745 0.021228
vn 0.999642 0.007208 -0.025768
vn 0.999642 0.007208 -0.025768
vn 0.999642 0.007208 -0.025768
vn 0.999642 0.007208 -0.025768
vn 0.999642 0.007208 -0.025768
vn 0.999642 0.007208 -0.025768
vn 0.999642 0.007208 -0.025768
vn 0.999642 0.007208 -0.025768
vn 0.999642 0.007208 -0.025768
vn 0.999642 0.007208 -0.025768
vn 0.999642 0.007208 -0.025768
vn 0.999642 0.007208 -0.025768
vn -0.007757 0.999745 -0.021228
vn -0.007757 0.999745 -0.021228
vn -0.007757 0.999745 -0.021228
vn -0.007757 0.999745 -0.021228
vn -0.007757 0.999745 -0.021228
vn -0.007757 0.999745 -0.021228
vn -0.999642 -0.007208 0.025768
vn -0.999642 -0.007208 0.025768
vn -0.999642 -0.007208 0.025768
vn -0.999642 -0.007208 0.025768
vn -0.999642 -0.007208 0.025768
vn -0.999642 -0.007208 0.025768
vn -0.999642 -0.007208 0.025768
vn -0.999642 -0.007208 0.025768
vn -0.999642 -0.007208 0.025768
vn -0.999642 -0.007208 0.025768
vn -0.999642 -0.007208 0.025768
vn -0.999642 -0.007208 0.025768
vn 0.999642 0.007208 -0.025768
vn 0.999642 0.007208 -0.025768
vn 0.999642 0.007208 -0.025768
vn 0.999642 0.007208 -0.025768
vn 0.999642 0.007208 -0.025768
vn 0.999642 0.007208 -0.025768
vn 0.007757 -0.999745 0.021228
vn 0.007757 -0.999745 0.021228
vn 0.007757 -0.999745 0.021228
vn 0.007757 -0.999745 0.021228
vn 0.007757 -0.999745 0.021228
vn 0.007757 -0.999745 0.021228
vn -0.025609 -0.021420 -0.999443
vn -0.025609 -0.021420 -0.999443
vn -0.025609 -0.021420 -0.999443
vn -0.025609 -0.021420 -0.999443
vn -0.025609 -0.021420 -0.999443
vn -0.025609 -0.021420 -0.999443
s off
usemtl Cuadro:lambert2SG
f 1/1/1 2/2/2 4/3/3
f 4/3/4 2/2/5 3/4/6
f 5/5/7 6/6/8 8/7/9
f 8/7/10 6/6/11 7/8/12
f 4/9/13 9/10/14 3/11/15
f 3/11/16 9/10/17 10/12/18
f 11/13/19 12/14/20 10/15/21
f 10/15/22 12/14/23 9/16/24
f 13/17/25 14/18/26 1/1/27
f 1/1/28 14/18/29 2/19/30
f 11/20/31 12/21/32 2/22/33
f 2/22/34 12/21/35 1/1/36
f 16/23/37 13/24/38 15/25/39
f 15/25/40 13/24/41 14/26/42
f 15/27/43 14/28/44 8/29/45
f 8/29/46 14/28/47 17/30/48
f 8/31/49 17/32/50 5/33/51
f 5/33/52 17/32/53 16/34/54
f 17/35/55 18/36/56 16/37/57
f 16/37/58 18/36/59 19/38/60
f 16/39/61 19/40/62 13/41/63
f 17/42/64 14/43/65 20/44/66
f 21/45/67 22/46/68 9/47/69
f 9/47/70 22/46/71 23/48/72
f 9/49/73 23/50/74 10/51/75
f 10/51/76 23/50/77 3/52/78
f 23/53/79 24/54/80 3/55/81
f 3/55/82 24/54/83 4/56/84
f 24/57/85 21/58/86 4/59/87
f 4/59/88 21/58/89 9/60/90
f 15/61/91 8/62/92 25/63/93
f 25/63/94 8/62/95 7/64/96
f 11/65/97 10/66/98 2/67/99
f 2/67/100 10/66/101 3/68/102
f 26/69/103 16/70/104 25/71/105
f 25/71/106 16/70/107 15/72/108
f 5/73/109 16/74/110 6/75/111
f 6/75/112 16/74/113 26/76/114
f 9/77/115 12/78/116 4/79/117
f 4/79/118 12/78/119 1/1/120
f 28/80/121 29/81/122 27/82/123
f 27/82/124 29/81/125 30/83/126
f 27/84/127 30/85/128 31/86/129
f 31/86/130 30/85/131 32/87/132
f 31/88/133 32/89/134 33/90/135
f 33/90/136 32/89/137 28/91/138
f 32/92/139 34/93/140 28/94/141
f 28/94/142 34/93/143 29/95/144
f 18/96/145 28/97/146 19/98/147
f 19/98/148 28/97/149 27/99/150
f 34/100/151 22/101/152 29/102/153
f 29/102/154 22/101/155 21/103/156
f 27/104/157 31/105/158 19/106/159
f 19/106/160 31/105/161 20/107/162
f 19/108/163 20/109/164 13/110/165
f 20/109/166 14/111/167 13/110/168
f 23/112/169 32/113/170 24/114/171
f 24/114/172 32/113/173 30/115/174
f 33/116/175 28/117/176 17/118/177
f 17/118/178 28/117/179 18/119/180
f 30/120/181 29/121/182 24/122/183
f 24/122/184 29/121/185 21/123/186
f 34/124/187 32/125/188 22/126/189
f 22/126/190 32/125/191 23/127/192
f 33/128/193 17/129/194 31/130/195
f 31/130/196 17/129/197 20/131/198
f 6/132/199 26/133/200 7/134/201
f 7/134/202 26/133/203 25/135/204
