# This file uses meters as units for non-parametric coordinates.

mtllib Cuadro.mtl
v -154.688565 115.269108 1504.976257
v -153.712421 175.712704 1503.768753
v -153.693733 175.727499 1504.524364
v -154.669877 115.283903 1505.731868
v -73.514779 173.013916 1500.325586
v -73.496094 173.028705 1501.081005
v -147.886236 174.266355 1502.896791
v -147.904922 174.251566 1502.141373
v -73.079695 113.926464 1503.740334
v -72.103552 174.370058 1502.532832
v -72.122243 174.355271 1501.777220
v -73.098386 113.911670 1502.984724
v -154.725937 115.239531 1503.465421
v -153.749794 175.683126 1502.257917
v -148.837980 116.475695 1503.295582
v -74.447839 115.238045 1501.479795
v -67.553610 178.783544 1500.065180
v -68.676174 109.273409 1501.453809
v -154.799146 110.706260 1503.555981
v -153.676585 180.216396 1502.167355
v -157.556565 108.027646 1505.945331
v -65.896076 106.502665 1503.707992
v -64.684074 181.550906 1502.208727
v -156.344562 183.075882 1504.446065
v -148.819296 116.490486 1504.051000
v -74.429154 115.252837 1502.235214
v -154.836516 110.676683 1502.045146
v -68.713546 109.243831 1499.942972
v -157.649994 107.953694 1502.168046
v -156.437990 183.001932 1500.668781
v -153.713951 180.186817 1500.656515
v -64.777505 181.476955 1498.431443
v -67.590980 178.753959 1498.554347
v -65.989505 106.428714 1499.930707
vt 0.000000 0.000000
vt 0.000000 0.000000
vt 0.000000 0.000000
vt 0.000000 0.000000
vt 0.000000 0.000000
vt 0.000000 0.000000
vt 0.000000 0.000000
vt 0.000000 0.000000
vt 0.000000 0.000000
vt 0.000000 0.000000
vt 0.000000 0.000000
vt 0.000000 0.000000
vt 0.000000 0.000000
vt 0.000000 0.000000
vt 0.000000 0.000000
vt 0.000000 0.000000
vt 0.000000 0.000000
vt 0.000000 0.000000
vt 0.000000 0.000000
vt 0.000000 0.000000
vt 0.000000 0.000000
vt 0.000000 0.000000
vt 0.000000 0.000000
vt 0.000000 0.000000
vt 0.000000 0.000000
vt 0.000000 0.000000
vt 0.000000 0.000000
vt 0.000000 0.000000
vt 0.000000 0.000000
vt 0.000000 0.000000
vt 0.000000 0.000000
vt 0.000000 0.000000
vt 0.000000 0.000000
vt 0.000000 0.000000
vt 0.000000 0.000000
vt 0.000000 0.000000
vt 0.000000 0.000000
vt 0.000000 0.000000
vt 0.000000 0.000000
vt 0.000000 0.000000
vt 0.000000 0.000000
vt 0.000000 0.000000
vt 0.000000 0.000000
vt 0.000000 0.000000
vt 0.000000 0.000000
vt 0.000000 0.000000
vt 0.000000 0.000000
vt 0.000000 0.000000
vt 0.000000 0.000000
vt 0.000000 0.000000
vt 0.000000 0.000000
vt 0.000000 0.000000
vt 0.000000 0.000000
vt 0.000000 0.000000
vt 0.000000 0.000000
vt 0.000000 0.000000
vt 0.000000 0.000000
vt 0.000000 0.000000
vt 0.000000 0.000000
vt 0.000000 0.000000
vt 0.000000 0.000000
vt 0.000000 0.000000
vt 0.000000 0.000000
vt 0.000000 0.000000
vt 0.000000 0.000000
vt 0.000000 0.000000
vt 0.000000 0.000000
vt 0.000000 0.000000
vt 0.000000 0.000000
vt 0.000000 0.000000
vt 0.000000 0.000000
vt 0.000000 0.000000
vt 0.000000 0.000000
vt 0.000000 0.000000
vt 0.000000 0.000000
vt 0.000000 0.000000
vt 0.000000 0.000000
vt 0.000000 0.000000
vt 0.000000 0.000000
vt 0.000000 0.000000
vt 0.000000 0.000000
vt 0.000000 0.000000
vt 0.000000 0.000000
vt 0.000000 0.000000
vt 0.000000 0.000000
vt 0.000000 0.000000
vt 0.000000 0.000000
vt 0.000000 0.000000
vt 0.000000 0.000000
vt 0.000000 0.000000
vt 0.000000 0.000000
vt 0.000000 0.000000
vt 0.000000 0.000000
vt 0.000000 0.000000
vt 0.000000 0.000000
vt 0.000000 0.000000
vt 0.000000 0.000000
vt 0.000000 0.000000
vt 0.000000 0.000000
vt 0.000000 0.000000
vt 0.000000 0.000000
vt 0.000000 0.000000
vt 0.000000 0.000000
vt 0.000000 0.000000
vt 0.000000 0.000000
vt 0.000000 0.000000
vt 0.000000 0.000000
vt 0.000000 0.000000
vt 0.000000 0.000000
vt 0.000000 0.000000
vt 0.000000 0.000000
vt 0.000000 0.000000
vt 0.000000 0.000000
vt 0.000000 0.000000
vt 0.000000 0.000000
vt 0.000000 0.000000
vt 0.000000 0.000000
vt 0.000000 0.000000
vt 0.000000 0.000000
vt 0.000000 0.000000
vt 0.000000 0.000000
vt 0.000000 0.000000
vt 0.000000 0.000000
vt 0.000000 0.000000
vt 0.000000 0.000000
vt 0.000000 0.000000
vt 0.000000 0.000000
vt 0.000000 0.000000
vt 0.000000 0.000000
vt 0.000000 0.000000
vt 0.000000 0.000000
vt -0.000000 0.989100
vt 0.000000 0.000000
vt 0.944600 0.989100
vt 0.944600 0.000000
vn 0.999564 -0.016630 -0.024398
vn 0.999564 -0.016630 -0.024398
vn 0.999564 -0.016630 -0.024398
vn 0.999564 -0.016630 -0.024398
vn 0.999564 -0.016630 -0.024398
vn 0.999564 -0.016630 -0.024398
vn -0.016144 -0.999670 0.019971
vn -0.016144 -0.999670 0.019971
vn -0.016144 -0.999670 0.019971
vn -0.016144 -0.999670 0.019971
vn -0.016144 -0.999670 0.019971
vn -0.016144 -0.999670 0.019971
vn 0.024722 0.019568 0.999503
vn 0.024722 0.019568 0.999503
vn 0.024722 0.019568 0.999503
vn 0.024722 0.019568 0.999503
vn 0.024722 0.019568 0.999503
vn 0.024722 0.019568 0.999503
vn -0.999564 0.016630 0.024398
vn -0.999564 0.016630 0.024398
vn -0.999564 0.016630 0.024398
vn -0.999564 0.016630 0.024398
vn -0.999564 0.016630 0.024398
vn -0.999564 0.016630 0.024398
vn 0.999564 -0.016630 -0.024398
vn 0.999564 -0.016630 -0.024398
vn 0.999564 -0.016630 -0.024398
vn 0.999564 -0.016630 -0.024398
vn 0.999564 -0.016630 -0.024398
vn 0.999564 -0.016630 -0.024398
vn -0.024722 -0.019568 -0.999503
vn -0.024722 -0.019568 -0.999503
vn -0.024722 -0.019568 -0.999503
vn -0.024722 -0.019568 -0.999503
vn -0.024722 -0.019568 -0.999503
vn -0.024722 -0.019568 -0.999503
vn -0.024722 -0.019568 -0.999503
vn -0.024722 -0.019568 -0.999503
vn -0.024722 -0.019568 -0.999503
vn -0.024722 -0.019568 -0.999503
vn -0.024722 -0.019568 -0.999503
vn -0.024722 -0.019568 -0.999503
vn -0.024722 -0.019568 -0.999503
vn -0.024722 -0.019568 -0.999503
vn -0.024722 -0.019568 -0.999503
vn -0.024722 -0.019568 -0.999503
vn -0.024722 -0.019568 -0.999503
vn -0.024722 -0.019568 -0.999503
vn -0.024722 -0.019568 -0.999503
vn -0.024722 -0.019568 -0.999503
vn -0.024722 -0.019568 -0.999503
vn -0.024722 -0.019568 -0.999503
vn -0.024722 -0.019568 -0.999503
vn -0.024722 -0.019568 -0.999503
vn -0.024722 -0.019568 -0.999503
vn -0.024722 -0.019568 -0.999503
vn -0.024722 -0.019568 -0.999503
vn -0.024722 -0.019568 -0.999503
vn -0.024722 -0.019568 -0.999503
vn -0.024722 -0.019568 -0.999503
vn -0.024722 -0.019568 -0.999503
vn -0.024722 -0.019568 -0.999503
vn -0.024722 -0.019568 -0.999503
vn -0.024722 -0.019568 -0.999503
vn -0.024722 -0.019568 -0.999503
vn -0.024722 -0.019568 -0.999503
vn 0.024722 0.019568 0.999503
vn 0.024722 0.019568 0.999503
vn 0.024722 0.019568 0.999503
vn 0.024722 0.019568 0.999503
vn 0.024722 0.019568 0.999503
vn 0.024722 0.019568 0.999503
vn 0.024722 0.019568 0.999503
vn 0.024722 0.019568 0.999503
vn 0.024722 0.019568 0.999503
vn 0.024722 0.019568 0.999503
vn 0.024722 0.019568 0.999503
vn 0.024722 0.019568 0.999503
vn 0.024722 0.019568 0.999503
vn 0.024722 0.019568 0.999503
vn 0.024722 0.019568 0.999503
vn 0.024722 0.019568 0.999503
vn 0.024722 0.019568 0.999503
vn 0.024722 0.019568 0.999503
vn 0.024722 0.019568 0.999503
vn 0.024722 0.019568 0.999503
vn 0.024722 0.019568 0.999503
vn 0.024722 0.019568 0.999503
vn 0.024722 0.019568 0.999503
vn 0.024722 0.019568 0.999503
vn 0.999564 -0.016630 -0.024398
vn 0.999564 -0.016630 -0.024398
vn 0.999564 -0.016630 -0.024398
vn 0.999564 -0.016630 -0.024398
vn 0.999564 -0.016630 -0.024398
vn 0.999564 -0.016630 -0.024398
vn -0.016144 -0.999670 0.019971
vn -0.016144 -0.999670 0.019971
vn -0.016144 -0.999670 0.019971
vn -0.016144 -0.999670 0.019971
vn -0.016144 -0.999670 0.019971
vn -0.016144 -0.999670 0.019971
vn 0.016144 0.999670 -0.019971
vn 0.016144 0.999670 -0.019971
vn 0.016144 0.999670 -0.019971
vn 0.016144 0.999670 -0.019971
vn 0.016144 0.999670 -0.019971
vn 0.016144 0.999670 -0.019971
vn -0.999564 0.016630 0.024398
vn -0.999564 0.016630 0.024398
vn -0.999564 0.016630 0.024398
vn -0.999564 0.016630 0.024398
vn -0.999564 0.016630 0.024398
vn -0.999564 0.016630 0.024398
vn 0.016144 0.999670 -0.019971
vn 0.016144 0.999670 -0.019971
vn 0.016144 0.999670 -0.019971
vn 0.016144 0.999670 -0.019971
vn 0.016144 0.999670 -0.019971
vn 0.016144 0.999670 -0.019971
vn -0.024722 -0.019568 -0.999503
vn -0.024722 -0.019568 -0.999503
vn -0.024722 -0.019568 -0.999503
vn -0.024722 -0.019568 -0.999503
vn -0.024722 -0.019568 -0.999503
vn -0.024722 -0.019568 -0.999503
vn -0.024722 -0.019568 -0.999503
vn -0.024722 -0.019568 -0.999503
vn -0.024722 -0.019568 -0.999503
vn -0.024722 -0.019568 -0.999503
vn -0.024722 -0.019568 -0.999503
vn -0.024722 -0.019568 -0.999503
vn -0.024722 -0.019568 -0.999503
vn -0.024722 -0.019568 -0.999503
vn -0.024722 -0.019568 -0.999503
vn -0.024722 -0.019568 -0.999503
vn -0.024722 -0.019568 -0.999503
vn -0.024722 -0.019568 -0.999503
vn -0.024722 -0.019568 -0.999503
vn -0.024722 -0.019568 -0.999503
vn -0.024722 -0.019568 -0.999503
vn -0.024722 -0.019568 -0.999503
vn -0.024722 -0.019568 -0.999503
vn -0.024722 -0.019568 -0.999503
vn 0.016144 0.999670 -0.019971
vn 0.016144 0.999670 -0.019971
vn 0.016144 0.999670 -0.019971
vn 0.016144 0.999670 -0.019971
vn 0.016144 0.999670 -0.019971
vn 0.016144 0.999670 -0.019971
vn -0.016144 -0.999670 0.019971
vn -0.016144 -0.999670 0.019971
vn -0.016144 -0.999670 0.019971
vn -0.016144 -0.999670 0.019971
vn -0.016144 -0.999670 0.019971
vn -0.016144 -0.999670 0.019971
vn 0.999564 -0.016630 -0.024398
vn 0.999564 -0.016630 -0.024398
vn 0.999564 -0.016630 -0.024398
vn 0.999564 -0.016630 -0.024398
vn 0.999564 -0.016630 -0.024398
vn 0.999564 -0.016630 -0.024398
vn 0.999564 -0.016630 -0.024398
vn 0.999564 -0.016630 -0.024398
vn 0.999564 -0.016630 -0.024398
vn 0.999564 -0.016630 -0.024398
vn 0.999564 -0.016630 -0.024398
vn 0.999564 -0.016630 -0.024398
vn 0.016144 0.999670 -0.019971
vn 0.016144 0.999670 -0.019971
vn 0.016144 0.999670 -0.019971
vn 0.016144 0.999670 -0.019971
vn 0.016144 0.999670 -0.019971
vn 0.016144 0.999670 -0.019971
vn -0.999564 0.016630 0.024398
vn -0.999564 0.016630 0.024398
vn -0.999564 0.016630 0.024398
vn -0.999564 0.016630 0.024398
vn -0.999564 0.016630 0.024398
vn -0.999564 0.016630 0.024398
vn -0.999564 0.016630 0.024398
vn -0.999564 0.016630 0.024398
vn -0.999564 0.016630 0.024398
vn -0.999564 0.016630 0.024398
vn -0.999564 0.016630 0.024398
vn -0.999564 0.016630 0.024398
vn 0.999564 -0.016630 -0.024398
vn 0.999564 -0.016630 -0.024398
vn 0.999564 -0.016630 -0.024398
vn 0.999564 -0.016630 -0.024398
vn 0.999564 -0.016630 -0.024398
vn 0.999564 -0.016630 -0.024398
vn -0.016144 -0.999670 0.019971
vn -0.016144 -0.999670 0.019971
vn -0.016144 -0.999670 0.019971
vn -0.016144 -0.999670 0.019971
vn -0.016144 -0.999670 0.019971
vn -0.016144 -0.999670 0.019971
vn -0.024722 -0.019568 -0.999503
vn -0.024722 -0.019568 -0.999503
vn -0.024722 -0.019568 -0.999503
vn -0.024722 -0.019568 -0.999503
vn -0.024722 -0.019568 -0.999503
vn -0.024722 -0.019568 -0.999503
s off
usemtl Cuadro:lambert2SG
f 1/1/1 2/2/2 4/3/3
f 4/3/4 2/2/5 3/4/6
f 5/5/7 6/6/8 8/7/9
f 8/7/10 6/6/11 7/8/12
f 4/9/13 9/10/14 3/11/15
f 3/11/16 9/10/17 10/12/18
f 11/13/19 12/14/20 10/15/21
f 10/15/22 12/14/23 9/16/24
f 13/17/25 14/18/26 1/1/27
f 1/1/28 14/18/29 2/19/30
f 11/20/31 12/21/32 2/22/33
f 2/22/34 12/21/35 1/1/36
f 16/23/37 13/24/38 15/25/39
f 15/25/40 13/24/41 14/26/42
f 15/27/43 14/28/44 8/29/45
f 8/29/46 14/28/47 17/30/48
f 8/31/49 17/32/50 5/33/51
f 5/33/52 17/32/53 16/34/54
f 17/35/55 18/36/56 16/37/57
f 16/37/58 18/36/59 19/38/60
f 16/39/61 19/40/62 13/41/63
f 17/42/64 14/43/65 20/44/66
f 21/45/67 22/46/68 9/47/69
f 9/47/70 22/46/71 23/48/72
f 9/49/73 23/50/74 10/51/75
f 10/51/76 23/50/77 3/52/78
f 23/53/79 24/54/80 3/55/81
f 3/55/82 24/54/83 4/56/84
f 24/57/85 21/58/86 4/59/87
f 4/59/88 21/58/89 9/60/90
f 15/61/91 8/62/92 25/63/93
f 25/63/94 8/62/95 7/64/96
f 11/65/97 10/66/98 2/67/99
f 2/67/100 10/66/101 3/68/102
f 26/69/103 16/70/104 25/71/105
f 25/71/106 16/70/107 15/72/108
f 5/73/109 16/74/110 6/75/111
f 6/75/112 16/74/113 26/76/114
f 9/77/115 12/78/116 4/79/117
f 4/79/118 12/78/119 1/1/120
f 28/80/121 29/81/122 27/82/123
f 27/82/124 29/81/125 30/83/126
f 27/84/127 30/85/128 31/86/129
f 31/86/130 30/85/131 32/87/132
f 31/88/133 32/89/134 33/90/135
f 33/90/136 32/89/137 28/91/138
f 32/92/139 34/93/140 28/94/141
f 28/94/142 34/93/143 29/95/144
f 18/96/145 28/97/146 19/98/147
f 19/98/148 28/97/149 27/99/150
f 34/100/151 22/101/152 29/102/153
f 29/102/154 22/101/155 21/103/156
f 27/104/157 31/105/158 19/106/159
f 19/106/160 31/105/161 20/107/162
f 19/108/163 20/109/164 13/110/165
f 20/109/166 14/111/167 13/110/168
f 23/112/169 32/113/170 24/114/171
f 24/114/172 32/113/173 30/115/174
f 33/116/175 28/117/176 17/118/177
f 17/118/178 28/117/179 18/119/180
f 30/120/181 29/121/182 24/122/183
f 24/122/184 29/121/185 21/123/186
f 34/124/187 32/125/188 22/126/189
f 22/126/190 32/125/191 23/127/192
f 33/128/193 17/129/194 31/130/195
f 31/130/196 17/129/197 20/131/198
f 6/132/199 26/133/200 7/134/201
f 7/134/202 26/133/203 25/135/204
